# xmcd
#
# Track frame offsets:
#	150
#	12417
#	23483
#	37394
#	54173
#	67672
#	78863
#	90675
#	100275
#	115199
#	132005
#	142279
#	153435
#	174058
#	196711
#	210320
#	222256
#	237209
#	249866
#	261216
#
# Disc length: 3606 seconds
#
# Revision: 0
# Processed by: cddbd v1.5.1PL0 Copyright (c) Steve Scherf et al.
# Submitted via: audiograbber 1.83.01
#
DISCID=fd0e1414
DTITLE=Various Artist - Volani taboroveho ohne - CD5 - Vandrovnici
DYEAR=2001
DGENRE=Country
TTITLE0=Wabi Danek - Rosa na kolejich
TTITLE1=Stopa - Island
TTITLE2=Karabina - Vzpominka na Kanci louku
TTITLE3=Spojene osady Brno - Kapitan Korkoran
TTITLE4=Kamelot - SOS
TTITLE5=Spojene osady Praha - Stado
TTITLE6=Paberky - Tak se toulam
TTITLE7=Hop Trop - Svorcak
TTITLE8=Spojene osady Praha - Pulnocni vlak
TTITLE9=Karabina - Vandrovnici
TTITLE10=Kamelot - Tajny vypravy
TTITLE11=Monsun - Stado osliku
TTITLE12=Wabi Danek - Fotky
TTITLE13=Karabina - Setactyricatej
TTITLE14=Spojene osady Brno - Centimetr Johny
TTITLE15=Kamelot - Katalanie
TTITLE16=Karabina and Nezmari - Bedna vod whisky
TTITLE17=Stopa - Zeleny plane
TTITLE18=Kapitan Kid - No to se vi
TTITLE19=Spojene osady Praha - Posledni pisen
EXTD=
EXTT0=
EXTT1=
EXTT2=
EXTT3=
EXTT4=
EXTT5=
EXTT6=
EXTT7=
EXTT8=
EXTT9=
EXTT10=
EXTT11=
EXTT12=
EXTT13=
EXTT14=
EXTT15=
EXTT16=
EXTT17=
EXTT18=
EXTT19=
PLAYORDER=
